arm26_states
version=1
nRows=13
nColumns=17
inDegrees=yes

# SIMM Motion File Header:
name arm26_states
datacolumns 17
datarows 13
otherdata 1
range 1.50400789 1.50404736
endheader
time	/jointset/r_shoulder/r_shoulder_elev/value	/jointset/r_shoulder/r_shoulder_elev/speed	/jointset/r_elbow/r_elbow_flex/value	/jointset/r_elbow/r_elbow_flex/speed	/forceset/TRIlong/activation	/forceset/TRIlong/fiber_length	/forceset/TRIlat/activation	/forceset/TRIlat/fiber_length	/forceset/TRImed/activation	/forceset/TRImed/fiber_length	/forceset/BIClong/activation	/forceset/BIClong/fiber_length	/forceset/BICshort/activation	/forceset/BICshort/fiber_length	/forceset/BRA/activation	/forceset/BRA/fiber_length
      1.50400789	     29.50160601	      2.51179121	     12.06504546	   -205.96024514	     -0.29651747	      0.15935164	      0.43678382	      0.07375596	      0.43678382	      0.06890543	      0.62734346	      0.17100659	     -0.10539482	      0.14880433	     -0.26983835	      0.09044678
      1.50401162	     29.50161542	      2.52995040	     12.06427639	   -206.02336727	     -0.29651795	      0.15935136	      0.43678603	      0.07375568	      0.43678603	      0.06890515	      0.62734663	      0.17098878	     -0.10539531	      0.14880454	     -0.26983883	      0.09044697
      1.50401227	     29.50161705	      2.53308921	     12.06414343	   -206.03427795	     -0.29651803	      0.15935131	      0.43678641	      0.07375563	      0.43678641	      0.06890510	      0.62734718	      0.17098571	     -0.10539540	      0.14880457	     -0.26983891	      0.09044700
      1.50401262	     29.50161794	      2.53479417	     12.06407120	   -206.04020448	     -0.29651807	      0.15935128	      0.43678662	      0.07375561	      0.43678662	      0.06890508	      0.62734748	      0.17098404	     -0.10539544	      0.14880459	     -0.26983896	      0.09044701
      1.50401272	     29.50161819	      2.53271455	     12.06405080	   -206.03512727	     -0.29651809	      0.15935127	      0.43678668	      0.07375560	      0.43678668	      0.06890507	      0.62734756	      0.17098637	     -0.10539546	      0.14880460	     -0.26983897	      0.09044702
      1.50401282	     29.50161844	      2.51783218	     12.06403040	   -205.99630245	     -0.29651810	      0.15935127	      0.43678674	      0.07375559	      0.43678674	      0.06890506	      0.62734765	      0.17100276	     -0.10539547	      0.14880460	     -0.26983898	      0.09044702
      1.50401331	     29.50161967	      2.44349420	     12.06392846	   -205.80237323	     -0.29651816	      0.15935123	      0.43678703	      0.07375556	      0.43678703	      0.06890503	      0.62734807	      0.17108464	     -0.10539554	      0.14880463	     -0.26983905	      0.09044705
      1.50401579	     29.50162526	      2.07364988	     12.06342019	   -204.83759294	     -0.29651848	      0.15935104	      0.43678849	      0.07375537	      0.43678849	      0.06890484	      0.62735017	      0.17149331	     -0.10539586	      0.14880477	     -0.26983937	      0.09044717
      1.50402817	     29.50163969	      0.27027220	     12.06091411	   -200.13455876	     -0.29652008	      0.15935009	      0.43679582	      0.07375444	      0.43679582	      0.06890391	      0.62736068	      0.17351745	     -0.10539750	      0.14880544	     -0.26984096	      0.09044777
      1.50403984	     29.50163325	     -1.36153421	     12.05860256	   -195.88094313	     -0.29652158	      0.15934919	      0.43680274	      0.07375357	      0.43680274	      0.06890304	      0.62737060	      0.17539514	     -0.10539904	      0.14880608	     -0.26984247	      0.09044834
      1.50404287	     29.50162850	     -1.77400069	     12.05801096	   -194.80609278	     -0.29652197	      0.15934896	      0.43680453	      0.07375334	      0.43680453	      0.06890281	      0.62737317	      0.17587683	     -0.10539944	      0.14880625	     -0.26984286	      0.09044849
      1.50404640	     29.50162139	     -2.24970300	     12.05732473	   -193.56662620	     -0.29652243	      0.15934869	      0.43680662	      0.07375308	      0.43680662	      0.06890255	      0.62737617	      0.17643594	     -0.10539990	      0.14880644	     -0.26984332	      0.09044866
      1.50404736	     29.50161919	     -2.37677840	     12.05714069	   -193.23555642	     -0.29652255	      0.15934862	      0.43680719	      0.07375301	      0.43680719	      0.06890248	      0.62737698	      0.17658594	     -0.10540003	      0.14880650	     -0.26984344	      0.09044871
